<svg width="48" height="48" fill="none" xmlns="http://www.w3.org/2000/svg"><path fill-rule="evenodd" clip-rule="evenodd" d="M0 24C0 10.745 10.745 0 24 0s24 10.745 24 24-10.745 24-24 24S0 37.255 0 24Zm19.092-3.364c-.358-.382-.915-.36-1.157.126l-5.861 11.721a.7.7 0 0 0 .627 1.014h8.161a.675.675 0 0 0 .627-.387c1.76-3.639.694-9.171-2.397-12.474Zm4.3-10.66c-3.278 5.193-3.062 10.945-.903 15.263l3.936 7.87a.7.7 0 0 0 .626.388h8.162a.7.7 0 0 0 .627-1.014S24.86 10.52 24.583 9.971c-.246-.492-.874-.499-1.191.004Z" fill="#7B7989" opacity=".2"/></svg>