<svg width="16" height="16" fill="none" xmlns="http://www.w3.org/2000/svg"><path d="M15.966.028c-.27-.019-.54-.028-.81-.028C9.422 0 6.158 4.371 4.971 7.889l3.15 3.15C11.742 9.744 16 6.6 16 .928c0-.293-.011-.593-.034-.9ZM8.446 9.48l-1.92-1.922c.814-1.906 3.127-5.964 8.132-6.213-.168 3.85-2.694 6.62-6.211 8.135Zm3.648 1.026a14.37 14.37 0 0 1-1.084.673c-.125.594-.442 1.229-.901 1.768-.001-.384-.108-.771-.295-1.16-.33.15-.644.28-.944.393.44 1.14-.008 1.98-.61 2.77.864-.065 1.77-.489 2.485-1.203.772-.77 1.312-1.882 1.35-3.241ZM4.215 6.192c-.385-.186-.772-.291-1.154-.293.535-.454 1.162-.77 1.75-.897.21-.369.445-.733.692-1.09-1.359.038-2.472.58-3.243 1.35-.714.714-1.137 1.621-1.202 2.485.788-.603 1.63-1.051 2.77-.61.116-.313.244-.628.387-.945Zm5.159.443a.666.666 0 0 1 .726-1.088.666.666 0 1 1-.726 1.088Zm3.3-3.3a1.336 1.336 0 0 0-2.176.433 1.333 1.333 0 1 0 2.175-.434ZM11.4 4.607a.465.465 0 0 1 .327-.806.466.466 0 1 1-.327.806ZM1.313 13.052l-.604-.604L4.18 8.989l.605.605-3.473 3.458Zm3.318 1.238-.604-.605 2.424-2.442.604.603-2.424 2.444ZM.604 16 0 15.396l4.299-4.29.604.603L.604 16Z" fill="#6348B7"/></svg>