<svg width="146" height="36" fill="none" xmlns="http://www.w3.org/2000/svg"><path d="M59.82 25.18c-1.36 0-2.553-.293-3.58-.88-1.013-.587-1.793-1.427-2.34-2.52-.547-1.093-.82-2.373-.82-3.84 0-1.467.273-2.74.82-3.82.547-1.093 1.327-1.933 2.34-2.52 1.027-.587 2.22-.88 3.58-.88.88 0 1.707.133 2.48.4.773.253 1.46.627 2.06 1.12.173.133.293.273.36.42.067.147.1.327.1.54 0 .293-.08.54-.24.74-.16.2-.353.3-.58.3-.267 0-.54-.093-.82-.28-.573-.427-1.107-.72-1.6-.88a4.921 4.921 0 0 0-1.64-.26c-1.387 0-2.44.433-3.16 1.3-.707.867-1.06 2.14-1.06 3.82 0 1.693.353 2.973 1.06 3.84.72.867 1.773 1.3 3.16 1.3.573 0 1.1-.087 1.58-.26.493-.173 1.047-.467 1.66-.88.133-.08.267-.147.4-.2a1.12 1.12 0 0 1 .42-.08c.227 0 .42.1.58.3.16.2.24.447.24.74 0 .2-.033.38-.1.54a1.147 1.147 0 0 1-.36.42 6.6 6.6 0 0 1-2.06 1.14 7.92 7.92 0 0 1-2.48.38Zm11.3-.02c-1 0-1.88-.207-2.64-.62a4.306 4.306 0 0 1-1.74-1.78c-.414-.773-.62-1.673-.62-2.7 0-1.027.206-1.92.62-2.68a4.306 4.306 0 0 1 1.74-1.78c.76-.413 1.64-.62 2.64-.62 1 0 1.873.207 2.62.62a4.152 4.152 0 0 1 1.74 1.78c.413.76.62 1.653.62 2.68 0 1.027-.207 1.927-.62 2.7-.4.773-.98 1.367-1.74 1.78-.747.413-1.62.62-2.62.62Zm-.02-1.94c.813 0 1.433-.267 1.86-.8.426-.533.64-1.32.64-2.36 0-1.027-.214-1.807-.64-2.34-.427-.547-1.04-.82-1.84-.82s-1.42.273-1.86.82c-.427.533-.64 1.313-.64 2.34 0 1.04.213 1.827.64 2.36.426.533 1.04.8 1.84.8Zm18.683-8.24c1.067 0 1.88.32 2.44.96.574.627.86 1.647.86 3.06v4.92c0 .387-.12.687-.36.9-.226.2-.526.3-.9.3-.36 0-.66-.1-.9-.3-.226-.213-.34-.513-.34-.9V19c0-.733-.133-1.253-.4-1.56-.253-.32-.646-.48-1.18-.48-.653 0-1.173.227-1.56.68-.386.44-.58 1.047-.58 1.82v4.46c0 .387-.12.687-.36.9-.226.2-.52.3-.88.3s-.66-.1-.9-.3c-.24-.213-.36-.513-.36-.9V19c0-.733-.133-1.253-.4-1.56-.253-.32-.646-.48-1.18-.48-.653 0-1.173.227-1.56.68-.373.44-.56 1.047-.56 1.82v4.46c0 .387-.12.687-.36.9-.24.2-.54.3-.9.3s-.66-.1-.9-.3c-.226-.213-.34-.513-.34-.9v-7.74c0-.373.12-.66.36-.86.24-.2.54-.3.9-.3.347 0 .627.1.84.3.227.187.34.46.34.82v.48c.307-.533.714-.94 1.22-1.22.52-.28 1.114-.42 1.78-.42 1.467 0 2.447.613 2.94 1.84a3.304 3.304 0 0 1 1.3-1.34c.574-.333 1.22-.5 1.94-.5Zm17.461 0c1.067 0 1.88.32 2.44.96.574.627.86 1.647.86 3.06v4.92c0 .387-.12.687-.36.9-.226.2-.526.3-.9.3-.36 0-.66-.1-.9-.3-.226-.213-.34-.513-.34-.9V19c0-.733-.133-1.253-.4-1.56-.253-.32-.646-.48-1.18-.48-.653 0-1.173.227-1.56.68-.386.44-.58 1.047-.58 1.82v4.46c0 .387-.12.687-.36.9-.226.2-.52.3-.88.3s-.66-.1-.9-.3c-.24-.213-.36-.513-.36-.9V19c0-.733-.133-1.253-.4-1.56-.253-.32-.646-.48-1.18-.48-.653 0-1.173.227-1.56.68-.373.44-.56 1.047-.56 1.82v4.46c0 .387-.12.687-.36.9-.24.2-.54.3-.9.3s-.66-.1-.9-.3c-.226-.213-.34-.513-.34-.9v-7.74c0-.373.12-.66.36-.86.24-.2.54-.3.9-.3.347 0 .627.1.84.3.227.187.34.46.34.82v.48c.307-.533.714-.94 1.22-1.22.52-.28 1.114-.42 1.78-.42 1.467 0 2.447.613 2.94 1.84a3.311 3.311 0 0 1 1.3-1.34c.574-.333 1.22-.5 1.94-.5Zm13.561.04c.387 0 .693.107.92.32.227.213.34.5.34.86v7.76c0 .347-.12.627-.36.84-.227.213-.527.32-.9.32-.36 0-.647-.1-.86-.3-.213-.2-.32-.473-.32-.82v-.5a3.26 3.26 0 0 1-1.24 1.24c-.52.28-1.107.42-1.76.42-2.4 0-3.6-1.347-3.6-4.04V16.2c0-.36.113-.647.34-.86.227-.213.527-.32.9-.32.387 0 .693.107.92.32.227.213.34.5.34.86v4.94c0 .693.14 1.207.42 1.54.28.333.72.5 1.32.5.693 0 1.247-.227 1.66-.68.427-.467.64-1.08.64-1.84V16.2c0-.36.113-.647.34-.86.227-.213.527-.32.9-.32Zm9.542-.04c1.174 0 2.047.333 2.62 1 .574.667.86 1.673.86 3.02v4.92c0 .373-.113.667-.34.88-.213.213-.513.32-.9.32-.386 0-.693-.107-.92-.32-.226-.213-.34-.507-.34-.88v-4.78c0-.76-.146-1.313-.44-1.66-.28-.347-.726-.52-1.34-.52-.72 0-1.3.227-1.74.68-.426.453-.64 1.06-.64 1.82v4.46c0 .373-.113.667-.34.88-.226.213-.533.32-.92.32-.386 0-.693-.107-.92-.32-.213-.213-.32-.507-.32-.88v-7.74c0-.347.114-.627.34-.84.227-.213.534-.32.92-.32.347 0 .627.107.84.32.227.2.34.467.34.8v.54c.334-.547.78-.967 1.34-1.26.56-.293 1.194-.44 1.9-.44Zm13.759 7.34c.227 0 .407.087.54.26.147.173.22.407.22.7 0 .413-.246.76-.74 1.04a6.99 6.99 0 0 1-1.54.62c-.573.147-1.12.22-1.64.22-1.573 0-2.82-.453-3.74-1.36-.92-.907-1.38-2.147-1.38-3.72 0-1 .2-1.887.6-2.66.4-.773.96-1.373 1.68-1.8.734-.427 1.56-.64 2.48-.64.88 0 1.647.193 2.3.58.654.387 1.16.933 1.52 1.64.36.707.54 1.54.54 2.5 0 .573-.253.86-.76.86h-5.9c.08.92.34 1.6.78 2.04.44.427 1.08.64 1.92.64.427 0 .8-.053 1.12-.16.334-.107.707-.253 1.12-.44.4-.213.694-.32.88-.32Zm-3.46-5.58c-.68 0-1.226.213-1.64.64-.4.427-.64 1.04-.72 1.84h4.52c-.026-.813-.226-1.427-.6-1.84-.373-.427-.893-.64-1.56-.64ZM29.936 6.053A21.85 21.85 0 0 0 28.418 6C17.666 6 11.546 14.196 9.32 20.791l5.908 5.907C22.014 24.27 30 18.375 30 7.74c0-.55-.021-1.112-.064-1.688ZM15.838 23.775l-3.602-3.603c1.526-3.575 5.864-11.183 15.248-11.65-.315 7.217-5.052 12.414-11.646 15.253Zm6.839 1.923c-.684.466-1.362.888-2.034 1.263-.234 1.113-.828 2.303-1.689 3.315-.002-.72-.203-1.446-.553-2.174-.62.281-1.208.523-1.769.735.826 2.137-.015 3.714-1.145 5.194 1.62-.122 3.321-.916 4.66-2.256 1.447-1.444 2.46-3.528 2.53-6.077ZM7.904 17.61c-.723-.348-1.448-.546-2.165-.55 1.003-.851 2.18-1.442 3.282-1.682.393-.691.834-1.373 1.297-2.042-2.548.07-4.634 1.085-6.08 2.53-1.34 1.339-2.132 3.04-2.255 4.659 1.479-1.13 3.058-1.97 5.194-1.143.218-.587.458-1.178.727-1.772Zm9.672.83a1.248 1.248 0 0 1 0-1.768 1.25 1.25 0 1 1 0 1.767Zm6.186-6.188a2.5 2.5 0 1 0-3.535 3.539 2.5 2.5 0 0 0 3.535-3.539Zm-2.387 2.388a.875.875 0 1 1 1.236-1.238.875.875 0 0 1-1.236 1.238ZM2.462 30.472 1.329 29.34l6.511-6.485 1.133 1.133-6.512 6.485Zm6.222 2.321L7.55 31.66l4.545-4.58 1.134 1.132-4.546 4.581ZM1.133 36 0 34.867l8.06-8.045 1.133 1.132L1.133 36Zm31.624-21.437a2.915 2.915 0 0 1-1.936 1.937 2.909 2.909 0 0 1 1.936 1.936 2.912 2.912 0 0 1 1.937-1.936 2.912 2.912 0 0 1-1.937-1.937ZM10.775 4.808a3.814 3.814 0 0 1-2.536 2.535 3.814 3.814 0 0 1 2.535 2.534 3.82 3.82 0 0 1 2.536-2.535 3.814 3.814 0 0 1-2.536-2.534ZM8.034 0A3.06 3.06 0 0 1 6 2.033a3.066 3.066 0 0 1 2.034 2.032 3.059 3.059 0 0 1 2.031-2.033A3.062 3.062 0 0 1 8.034 0Zm8.08 0a4.887 4.887 0 0 1-3.244 3.244 4.878 4.878 0 0 1 3.245 3.245 4.885 4.885 0 0 1 3.243-3.244A4.891 4.891 0 0 1 16.114 0Zm16.643 20.46a4.884 4.884 0 0 1-3.244 3.244c1.553.474 2.77 1.744 3.244 3.296.474-1.554 1.69-2.822 3.243-3.296a4.885 4.885 0 0 1-3.243-3.244Z" fill="#372865"/></svg>