<svg width="48" height="48" fill="none" xmlns="http://www.w3.org/2000/svg"><g opacity=".2" fill-rule="evenodd" clip-rule="evenodd" fill="#7B7989"><path d="M24 48C10.745 48 0 37.255 0 24S10.745 0 24 0s24 10.745 24 24-10.745 24-24 24ZM12.331 11.2l-1.878 5.009v20.033h6.884V40h3.758l3.754-3.758h5.634l7.512-7.51V11.2H12.331Z"/><path d="M14.834 13.703h20.658v13.774l-4.383 4.383h-6.885l-3.753 3.754V31.86h-5.637V13.703Zm6.886 12.524h2.504v-7.513H21.72v7.513Zm6.885 0h2.504v-7.513h-2.504v7.513Z"/></g></svg>