<svg width="48" height="48" fill="none" xmlns="http://www.w3.org/2000/svg"><g opacity=".2" fill-rule="evenodd" clip-rule="evenodd" fill="#7B7989"><path d="M0 24C0 10.745 10.745 0 24 0s24 10.745 24 24-10.745 24-24 24S0 37.255 0 24Zm27.558-5.33h6.78v-1.942h-6.78v1.942Zm6.182 1.63c-.816-.36-1.732-.542-2.751-.542-1.715 0-3.107.536-4.183 1.601-1.073 1.068-1.61 2.602-1.61 4.602 0 2.132.592 3.674 1.786 4.62 1.187.947 2.562 1.419 4.12 1.419 1.885 0 3.353-.561 4.4-1.682.672-.707 1.051-1.404 1.134-2.087h-3.123c-.18.339-.392.603-.63.795-.436.352-1.003.528-1.697.528-.66 0-1.22-.145-1.688-.435-.77-.465-1.174-1.277-1.225-2.433h8.524c.014-.997-.02-1.763-.102-2.292-.142-.904-.452-1.7-.935-2.386-.53-.778-1.203-1.348-2.02-1.708Zm-10.795-2.637c-.805-1.08-2.17-1.635-4.1-1.663H11.2v15.607h7.128c.804 0 1.548-.069 2.236-.21.688-.142 1.282-.402 1.786-.784a4.338 4.338 0 0 0 1.12-1.228c.471-.734.706-1.564.706-2.489 0-.897-.206-1.66-.615-2.286-.414-.629-1.023-1.087-1.83-1.378.532-.268.934-.565 1.208-.888.49-.58.731-1.347.731-2.3 0-.924-.242-1.717-.725-2.38Z"/><path d="M14.353 18.71h3.444c.757 0 1.38.082 1.871.243.566.235.85.715.85 1.444 0 .653-.216 1.11-.644 1.369-.43.258-.988.388-1.673.388h-3.848V18.71Zm14.811 4.198c.432-.44 1.043-.66 1.826-.66.723 0 1.326.207 1.817.621.484.418.758 1.023.814 1.825h-5.273c.112-.751.384-1.347.816-1.786Zm-14.81 1.828h3.895c.677.006 1.205.095 1.582.264.673.305 1.007.861 1.007 1.675 0 .96-.347 1.607-1.04 1.948-.381.183-.917.275-1.603.275h-3.842v-4.162Z"/></g></svg>