<svg width="48" height="48" fill="none" xmlns="http://www.w3.org/2000/svg"><path fill-rule="evenodd" clip-rule="evenodd" d="M0 24C0 10.745 10.745 0 24 0s24 10.745 24 24-10.745 24-24 24S0 37.255 0 24Zm18.295-13.6L9.6 16.077l6.012 4.815 8.767-5.414-6.084-5.078ZM9.6 25.706l8.695 5.678 6.084-5.079-8.767-5.413L9.6 25.706Zm14.78.6 6.083 5.078 8.695-5.678-6.012-4.814-8.767 5.413Zm14.778-10.229L30.463 10.4l-6.084 5.078 8.767 5.414 6.012-4.815Zm-14.761 11.32-6.102 5.064-2.611-1.705v1.911l8.713 5.225 8.713-5.225v-1.91L30.5 32.46l-6.102-5.063Z" fill="#7B7989" opacity=".2"/></svg>